<?xml version="1.0" encoding="UTF-8"?>
<svg width="24px" height="36px" viewBox="0 0 12 24" version="1.1" xmlns="http://www.w3.org/2000/svg" xmlns:xlink="http://www.w3.org/1999/xlink">
    <title>ic/gallery/public/ arrow</title>
    <defs>
        <path d="M9.99233033,11.49238 C10.0856576,11.5389681 10.0534155,11.498226 9.99233033,11.49238 C10.0101761,11.4549844 10.0036777,11.4512352 9.99233033,11.49238 L3.99233033,5.49237995 C3.72821397,5.16920668 3.25408004,5.16920668 2.99233033,5.49237995 C2.66922322,5.75459286 2.66922322,6.22975047 2.99233033,6.49237995 L8.49233033,11.99238 L2.99233033,17.49238 C2.6697231,17.7560092 2.6697231,18.230417 2.99233033,18.49238 C3.25333023,18.8155532 3.72746415,18.8155532 3.99233033,18.49238 L9.99233033,12.49238 C9.95543947,12.5915135 9.99068084,12.5640188 9.99233033,12.49238 C10.2816096,12.2733253 10.3111024,11.873653 9.99233033,11.49238" id="path-1"></path>
    </defs>
    <g id="ic/gallery/public/-arrow" stroke="none" stroke-width="1" fill="none" fill-rule="evenodd">
        <mask id="mask-2" fill="white">
            <use xlink:href="#path-1"></use>
        </mask>
        <use id="Fill-1" fill="#000000" xlink:href="#path-1"></use>
        <g id="编组" mask="url(#mask-2)" fill="#FFFFFF" fill-opacity="0.4">
            <g id="矩形">
                <rect x="0" y="0" width="24" height="24"></rect>
            </g>
        </g>
    </g>
</svg>