<?xml version="1.0" encoding="UTF-8"?>
<svg  viewBox="0 0 24 24" version="1.1" xmlns="http://www.w3.org/2000/svg" xmlns:xlink="http://www.w3.org/1999/xlink">
    <title>ic/gallery/public/camera</title>
    <defs>
        <path d="M15.1506035,3.50285034 C15.8062468,3.50285034 16.420304,3.82402296 16.7942803,4.36254875 L17.9343688,6.00427615 L20.0327871,6.00427615 C21.6905863,6.00427615 23.034498,7.34818792 23.034498,9.00598711 L23.034498,18.01112 C23.034498,19.6689192 21.6905863,21.012831 20.0327871,21.012831 L4.02366191,21.012831 C2.36586272,21.012831 1.02195095,19.6689192 1.02195095,18.01112 L1.02195095,9.00598711 C1.02195095,7.34818792 2.36586272,6.00427615 4.02366191,6.00427615 L6.12208023,6.00427615 L7.2621687,4.36254875 C7.63614494,3.82402296 8.25020214,3.50285034 8.90584552,3.50285034 L15.1506035,3.50285034 Z M15.1506035,5.00370582 L8.90584552,5.00370582 C8.74193468,5.00370582 8.58842038,5.08399898 8.49492632,5.21863042 L6.90707826,7.50513163 L4.02366191,7.50513163 C3.19476232,7.50513163 2.52280643,8.17708752 2.52280643,9.00598711 L2.52280643,18.01112 C2.52280643,18.8400196 3.19476232,19.5119755 4.02366191,19.5119755 L20.0327871,19.5119755 C20.8616867,19.5119755 21.5336426,18.8400196 21.5336426,18.01112 L21.5336426,9.00598711 C21.5336426,8.17708752 20.8616867,7.50513163 20.0327871,7.50513163 L17.1493707,7.50513163 L15.5615227,5.21863042 C15.4680286,5.08399898 15.3145143,5.00370582 15.1506035,5.00370582 Z M12.0282245,8.25555937 C14.6530732,8.25555937 16.7809335,10.3834197 16.7809335,13.0082684 C16.7809335,15.6331171 14.6530732,17.7609774 12.0282245,17.7609774 C9.40337577,17.7609774 7.27551546,15.6331171 7.27551546,13.0082684 C7.27551546,10.3834197 9.40337577,8.25555937 12.0282245,8.25555937 Z M12.0282245,9.75641485 C10.2322754,9.75641485 8.77637094,11.2123193 8.77637094,13.0082684 C8.77637094,14.8042175 10.2322754,16.260122 12.0282245,16.260122 C13.8241736,16.260122 15.280078,14.8042175 15.280078,13.0082684 C15.280078,11.2123193 13.8241736,9.75641485 12.0282245,9.75641485 Z" id="path-1"></path>
    </defs>
    <g id="ic/gallery/public/camera" stroke="none" stroke-width="1" fill="none" fill-rule="evenodd">
        <mask id="mask-2" fill="white">
            <use xlink:href="#path-1"></use>
        </mask>
        <use id="合并形状" fill="#000000" xlink:href="#path-1"></use>
        <g id="编组" mask="url(#mask-2)" fill="#FFFFFF" fill-opacity="0.1">
            <g id="矩形">
                <rect x="0" y="0" width="24" height="24"></rect>
            </g>
        </g>
    </g>
</svg>