<?xml version="1.0" encoding="UTF-8"?>
<svg  viewBox="0 0 24 24" version="1.1" xmlns="http://www.w3.org/2000/svg" xmlns:xlink="http://www.w3.org/1999/xlink">
    <title>ic/gallery/public/cancel_bg</title>
    <g id="ic/gallery/public/cancel_bg" stroke="none" stroke-width="1" fill="none" fill-rule="evenodd">
        <g id="Group" transform="translate(2.000000, 2.000000)">
            <circle id="Oval-31" fill-opacity="0.3" fill="#000000" cx="10" cy="10" r="10"></circle>
            <path d="M5.29175,5.2915 C5.68075,4.90283333 6.31708333,4.90283333 6.70608333,5.2915 L6.70608333,5.2915 L10,8.585 L13.2940833,5.2915 C13.6830833,4.90283333 14.3194167,4.90283333 14.7084167,5.2915 C15.0974167,5.6805 15.0974167,6.31683333 14.7084167,6.70583333 L11.414,10 L14.7084167,13.2941667 C15.0674936,13.6529359 15.0951149,14.2230187 14.7912806,14.6142978 L14.7084167,14.7081667 L14.6144821,14.7910306 C14.2229827,15.0948649 13.6531603,15.0672436 13.2940833,14.7081667 L13.2940833,14.7081667 L10,11.414 L6.70608333,14.7081667 C6.34700641,15.0672436 5.77718393,15.0948649 5.38568461,14.7910306 L5.29175,14.7081667 C4.90275,14.3195 4.90275,13.6828333 5.29175,13.2941667 L8.586,10 L5.29175,6.70583333 C4.93267308,6.34675641 4.90505178,5.77693393 5.20888609,5.38543461 Z" id="Fill-4" fill="#FFFFFF"></path>
        </g>
    </g>
</svg>