<?xml version="1.0" encoding="UTF-8"?>
<svg viewBox="0 0 24 24" version="1.1" xmlns="http://www.w3.org/2000/svg" xmlns:xlink="http://www.w3.org/1999/xlink">
    <title>ic/gallery/public/checkbox_filled</title>
    <defs>
        <path d="M2,5.99922997 C2,3.79051625 3.79246765,2 5.99922997,2 L18.00077,2 C20.2094838,2 22,3.79246765 22,5.99922997 L22,18.00077 C22,20.2094838 20.2075324,22 18.00077,22 L5.99922997,22 C3.79051625,22 2,20.2075324 2,18.00077 L2,5.99922997 Z" id="path-1"></path>
    </defs>
    <g id="ic/gallery/public/checkbox_filled" stroke="none" stroke-width="1" fill="none" fill-rule="evenodd">
        <mask id="mask-2" fill="white">
            <use xlink:href="#path-1"></use>
        </mask>
        <use id="Rectangle-2375-Copy" fill="#007DFF" xlink:href="#path-1"></use>
        <path d="M14.3959787,4.87585883 C14.9482635,4.87585883 15.3959787,5.33080574 15.3959787,5.87422128 L15.3959787,15.1258588 C15.3959787,15.5597968 15.125654,15.9291792 14.7357194,16.0675602 L14.6264819,16.0994914 C14.5895326,16.1081141 14.5517688,16.1147059 14.5133113,16.1191421 L14.3959787,16.1258588 L14.3779787,16.1248588 L9.39890806,16.1258588 C8.84500549,16.1258588 8.39597873,15.681994 8.39597873,15.1258588 C8.39597873,14.5735741 8.83386008,14.1258588 9.39890806,14.1258588 L13.3949787,14.1248588 L13.3959787,5.87422128 C13.3959787,5.36222524 13.7786989,4.94024606 14.2786462,4.88257555 L14.3959787,4.87585883 Z" id="Rectangle-62" fill="#FFFFFF" transform="translate(11.895979, 10.500859) rotate(43.000000) translate(-11.895979, -10.500859) "></path>
    </g>
</svg>