<?xml version="1.0" encoding="UTF-8"?>
<svg  viewBox="0 0 24 24" version="1.1" xmlns="http://www.w3.org/2000/svg" xmlns:xlink="http://www.w3.org/1999/xlink">
    <title>ic/gallery/public/cancel</title>
    <defs>
        <path d="M11.25,11.25 L11.25,2.75 C11.25,2.33578644 11.5857864,2 12,2 C12.4142136,2 12.75,2.33578644 12.75,2.75 L12.75,11.25 L21.25,11.25 C21.6642136,11.25 22,11.5857864 22,12 C22,12.4142136 21.6642136,12.75 21.25,12.75 L12.75,12.75 L12.75,21.25 C12.75,21.6642136 12.4142136,22 12,22 C11.5857864,22 11.25,21.6642136 11.25,21.25 L11.25,12.75 L2.75,12.75 C2.33578644,12.75 2,12.4142136 2,12 C2,11.5857864 2.33578644,11.25 2.75,11.25 L11.25,11.25 Z" id="path-1"></path>
    </defs>
    <g id="ic/gallery/public/cancel" stroke="none" stroke-width="1" fill="none" fill-rule="evenodd">
        <mask id="mask-2" fill="white">
            <use xlink:href="#path-1"></use>
        </mask>
        <use id="路径" fill="#000000" fill-rule="nonzero" transform="translate(12.000000, 12.000000) rotate(45.000000) translate(-12.000000, -12.000000) " xlink:href="#path-1"></use>
        <g id="编组" mask="url(#mask-2)" fill="#FFFFFF" fill-opacity="0.1">
            <g id="矩形">
                <rect x="0" y="0" width="24" height="24"></rect>
            </g>
        </g>
    </g>
</svg>