<?xml version="1.0" encoding="UTF-8"?>
<svg viewBox="0 0 24 24" version="1.1" xmlns="http://www.w3.org/2000/svg" xmlns:xlink="http://www.w3.org/1999/xlink">
    <title>ic/gallery/public/show all folder</title>
    <defs>
        <path d="M8.5,6 L10.6773685,8 L17,8 C18.6568542,8 20,9.34314575 20,11 L20,18 C20,19.6568542 18.6568542,21 17,21 L4,21 C2.34314575,21 1,19.6568542 1,18 L1,9 C1,7.34314575 2.34314575,6 4,6 L8.5,6 Z M7.916,7.5 L4,7.5 C3.22030388,7.5 2.57955132,8.09488808 2.50686658,8.85553999 L2.5,9 L2.5,18 C2.5,18.7796961 3.09488808,19.4204487 3.85553999,19.4931334 L4,19.5 L17,19.5 C17.7796961,19.5 18.4204487,18.9051119 18.4931334,18.14446 L18.5,18 L18.5,11 C18.5,10.2203039 17.9051119,9.57955132 17.14446,9.50686658 L17,9.5 L10.0930146,9.5 L7.916,7.5 Z M11.5,3 L13.6773685,5 L20,5 C21.6568542,5 23,6.34314575 23,8 L23,15 C23,16.1105424 22.3965729,17.0801468 21.499712,17.59882 L21.5,8 C21.5,7.22030388 20.9051119,6.57955132 20.14446,6.50686658 L20,6.5 L13.0930146,6.5 L10.916,4.5 L4.40118003,4.50028797 C4.91985316,3.60342711 5.8894576,3 7,3 L11.5,3 Z" id="path-1"></path>
    </defs>
    <g id="ic/gallery/public/show-all-folder" stroke="none" stroke-width="1" fill="none" fill-rule="evenodd">
        <mask id="mask-2" fill="white">
            <use xlink:href="#path-1"></use>
        </mask>
        <use id="形状结合" fill="#000000" fill-rule="nonzero" xlink:href="#path-1"></use>
        <g id="编组" mask="url(#mask-2)" fill="#FFFFFF" fill-opacity="0.1">
            <g id="矩形">
                <rect x="0" y="0" width="24" height="24"></rect>
            </g>
        </g>
    </g>
</svg>