<?xml version="1.0" encoding="UTF-8"?>
<svg viewBox="0 0 24 24" version="1.1" xmlns="http://www.w3.org/2000/svg" xmlns:xlink="http://www.w3.org/1999/xlink">
    <title>ic/gallery/public/delete</title>
    <defs>
        <path d="M14.6484366,1 C15.6149349,1 16.3984366,1.78350169 16.3984366,2.75 L16.3984366,4 L22.25,4 C22.6642136,4 23,4.33578644 23,4.75 C23,5.16421356 22.6642136,5.5 22.25,5.5 L21.187,5.5 L19.8915558,20.2622663 C19.7555963,21.8115191 18.4582488,23 16.9030417,23 L7.09695829,23 C5.54175115,23 4.24440366,21.8115191 4.10844421,20.2622663 L2.812,5.5 L1.75,5.5 C1.33578644,5.5 1,5.16421356 1,4.75 C1,4.33578644 1.33578644,4 1.75,4 L7.83018705,4 L7.83018705,2.75 C7.83018705,1.78350169 8.61368874,1 9.58018705,1 L14.6484366,1 Z M14.6484366,2.5 L9.58018705,2.5 C9.44211586,2.5 9.33018705,2.61192881 9.33018705,2.75 L9.33018705,4.75 C9.33018705,5.16421356 8.99440061,5.5 8.58018705,5.5 L4.319,5.5 L5.60270125,20.1311331 C5.67068098,20.9057595 6.31935472,21.5 7.09695829,21.5 L16.9030417,21.5 C17.6806453,21.5 18.329319,20.9057595 18.3972988,20.1311331 L19.68,5.5 L15.6484366,5.5 C15.2342231,5.5 14.8984366,5.16421356 14.8984366,4.75 L14.8984366,2.75 C14.8984366,2.61192881 14.7865078,2.5 14.6484366,2.5 Z M14.25,7.5 C14.6642136,7.5 15,7.83578644 15,8.25 L15,18 C15,18.4142136 14.6642136,18.75 14.25,18.75 C13.8357864,18.75 13.5,18.4142136 13.5,18 L13.5,8.25 C13.5,7.83578644 13.8357864,7.5 14.25,7.5 Z M9.75,7.5 C10.1642136,7.5 10.5,7.83578644 10.5,8.25 L10.5,18 C10.5,18.4142136 10.1642136,18.75 9.75,18.75 C9.33578644,18.75 9,18.4142136 9,18 L9,8.25 C9,7.83578644 9.33578644,7.5 9.75,7.5 Z" id="path-1"></path>
    </defs>
    <g id="ic/gallery/public/delete" stroke="none" stroke-width="1" fill="none" fill-rule="evenodd">
        <mask id="mask-2" fill="white">
            <use xlink:href="#path-1"></use>
        </mask>
        <use id="Combined-Shape" fill="#000000" fill-rule="nonzero" xlink:href="#path-1"></use>
        <g id="编组" mask="url(#mask-2)" fill="#FFFFFF" fill-opacity="0.1">
            <g id="矩形">
                <rect x="0" y="0" width="24" height="24"></rect>
            </g>
        </g>
    </g>
</svg>