<?xml version="1.0" encoding="UTF-8"?>
<svg viewBox="0 0 24 24"
     version="1.1"
     xmlns="http://www.w3.org/2000/svg"
     xmlns:xlink="http://www.w3.org/1999/xlink">
    <title>ic/gallery/public/fullscreen</title>
    <g
        id="ic/gallery/public/fullscreen"
        stroke="none"
        stroke-width="1"
        fill="none"
        fill-rule="evenodd">
        <g id="ic_tskm_fullscreen">
            <path
                d="M2,5.99922997 C2,3.79051625 3.79246765,2 5.99922997,2 L18.00077,2 C20.2094838,2 22,3.79246765 22,5.99922997 L22,18.00077 C22,20.2094838 20.2075324,22 18.00077,22 L5.99922997,22 C3.79051625,22 2,20.2075324 2,18.00077 L2,5.99922997 Z"
                id="Rectangle-210-Copy-6"
                fill-opacity="0.1"
                fill="#ffffff"></path>
            <path
                d="M11.75,6.50735294 C11.75,6.21920821 11.5307918,6 11.2426471,6 L6.75,6 C6.33578644,6 6,6.33578644 6,6.75 L6,11.2426471 L6,11.2426471 C6,11.5307918 6.21920821,11.75 6.50735294,11.75 C6.79252199,11.75 7.01173021,11.5307918 7.01470588,11.2426471 L7.01470588,7.69117647 L10.9044118,11.5808824 C11.0440187,11.7031292 11.3532855,11.7954378 11.5697773,11.5808824 C11.7862691,11.3663269 11.7217198,11.0639828 11.5808824,10.9044118 L7.69117647,7.01470588 L11.2426471,7.01470588 C11.5307918,7.01173021 11.75,6.79252199 11.75,6.50735294 Z"
                id="Shape"
                fill="#FFFFFF"
                fill-rule="nonzero"></path>
            <path
                d="M18,12.7573529 C18,12.4692082 17.7807918,12.25 17.4926471,12.25 L13,12.25 C12.5857864,12.25 12.25,12.5857864 12.25,13 L12.25,17.4926471 L12.25,17.4926471 C12.25,17.7807918 12.4692082,18 12.7573529,18 C13.042522,18 13.2617302,17.7807918 13.2647059,17.4926471 L13.2647059,13.9411765 L17.1544118,17.8308824 C17.2940187,17.9531292 17.6032855,18.0454378 17.8197773,17.8308824 C18.0362691,17.6163269 17.9717198,17.3139828 17.8308824,17.1544118 L13.9411765,13.2647059 L17.4926471,13.2647059 C17.7807918,13.2617302 18,13.042522 18,12.7573529 Z"
                id="Shape"
                fill="#FFFFFF"
                fill-rule="nonzero"
                transform="translate(15.125000, 15.125000) scale(-1, -1) translate(-15.125000, -15.125000) "></path>
        </g>
    </g>
</svg>