<?xml version="1.0" encoding="UTF-8"?>
<svg  viewBox="0 0 24 24" version="1.1" xmlns="http://www.w3.org/2000/svg" xmlns:xlink="http://www.w3.org/1999/xlink">
    <title>ic/gallery/public/info</title>
    <defs>
        <path d="M12,1 C18.0751322,1 23,5.92486775 23,12 C23,18.0751322 18.0751322,23 12,23 C5.92486775,23 1,18.0751322 1,12 C1,5.92486775 5.92486775,1 12,1 Z M12,2.5 C6.75329488,2.5 2.5,6.75329488 2.5,12 C2.5,17.2467051 6.75329488,21.5 12,21.5 C17.2467051,21.5 21.5,17.2467051 21.5,12 C21.5,6.75329488 17.2467051,2.5 12,2.5 Z M12,15.5 C12.6903125,15.5 13.25,16.0596875 13.25,16.75 C13.25,17.4403125 12.6903125,18 12,18 C11.3096875,18 10.75,17.4403125 10.75,16.75 C10.75,16.0596875 11.3096875,15.5 12,15.5 Z M12,6 C12.6903125,6 13.25,6.5596875 13.25,7.25 C13.25,7.32202353 13.2439074,7.39262512 13.2322095,7.46131744 L12.625,13.9020251 C12.6100211,14.2348894 12.3359475,14.5 12,14.5 C11.6548437,14.5 11.375,14.2201563 11.375,13.875 L11.377,13.902 L11.375,13.9020251 L10.7707857,7.47820274 C10.7571344,7.40421192 10.75,7.32793851 10.75,7.25 C10.75,6.5596875 11.3096875,6 12,6 Z" id="path-1"></path>
    </defs>
    <g id="ic/gallery/public/info" stroke="none" stroke-width="1" fill="none" fill-rule="evenodd">
        <mask id="mask-2" fill="white">
            <use xlink:href="#path-1"></use>
        </mask>
        <use id="合并形状" fill="#000000" fill-rule="nonzero" xlink:href="#path-1"></use>
        <g id="编组" mask="url(#mask-2)" fill="#FFFFFF" fill-opacity="0.1">
            <g id="矩形">
                <rect x="0" y="0" width="24" height="24"></rect>
            </g>
        </g>
    </g>
</svg>