<?xml version="1.0" encoding="UTF-8"?>
<svg  viewBox="0 0 24 24" version="1.1" xmlns="http://www.w3.org/2000/svg" xmlns:xlink="http://www.w3.org/1999/xlink">
    <title>ic/gallery/public/more</title>
    <defs>
        <path d="M12,17.75 C12.8284271,17.75 13.5,18.4215729 13.5,19.25 C13.5,20.0784271 12.8284271,20.75 12,20.75 C11.1715729,20.75 10.5,20.0784271 10.5,19.25 C10.5,18.4215729 11.1715729,17.75 12,17.75 Z M12,10.5 C12.8284271,10.5 13.5,11.1715729 13.5,12 C13.5,12.8284271 12.8284271,13.5 12,13.5 C11.1715729,13.5 10.5,12.8284271 10.5,12 C10.5,11.1715729 11.1715729,10.5 12,10.5 Z M12,3.25 C12.8284271,3.25 13.5,3.92157288 13.5,4.75 C13.5,5.57842712 12.8284271,6.25 12,6.25 C11.1715729,6.25 10.5,5.57842712 10.5,4.75 C10.5,3.92157288 11.1715729,3.25 12,3.25 Z" id="path-1"></path>
    </defs>
    <g id="ic/gallery/public/more" stroke="none" stroke-width="1" fill="none" fill-rule="evenodd">
        <mask id="mask-2" fill="white">
            <use xlink:href="#path-1"></use>
        </mask>
        <use id="Mask" fill="#000000" fill-rule="nonzero" xlink:href="#path-1"></use>
        <g id="编组" mask="url(#mask-2)" fill="#FFFFFF" fill-opacity="0.1">
            <g id="矩形">
                <rect x="0" y="0" width="24" height="24"></rect>
            </g>
        </g>
    </g>
</svg>