<?xml version="1.0" encoding="UTF-8"?>
<svg  viewBox="0 0 24 24" version="1.1" xmlns="http://www.w3.org/2000/svg" xmlns:xlink="http://www.w3.org/1999/xlink">
    <title>ic/gallery/public/move albm</title>
    <defs>
        <path d="M7.09016905,-8.8817842e-14 L8.072,1.005 L17.7543478,1.00576923 C19.2731309,1.00576923 20.5043478,2.23698617 20.5043478,3.75576923 L20.5047569,4.40410415 C21.398835,4.92349194 22,5.89154117 22,7 L22,15.0300725 C22,16.6869267 20.6568542,18.0300725 19,18.0300725 L3,18.0300725 C1.34314575,18.0300725 3.30402372e-13,16.6869267 3.30402372e-13,15.0300725 L3.30402372e-13,3 C3.30402372e-13,1.34314575 1.34314575,-8.8817842e-14 3,-8.8817842e-14 L7.09016905,-8.8817842e-14 Z M6.45880872,1.5 L3,1.5 C2.17157288,1.5 1.5,2.17157288 1.5,3 L1.5,15.0300725 C1.5,15.8584996 2.17157288,16.5300725 3,16.5300725 L19,16.5300725 C19.8284271,16.5300725 20.5,15.8584996 20.5,15.0300725 L20.5,7 C20.5,6.17157288 19.8284271,5.5 19,5.5 L11,5.5 C10.5962468,5.5 10.2095421,5.33723333 9.9273184,5.04850093 L7.27087558,2.33280382 C7.22847391,2.29755785 7.19001909,2.25772693 7.15627192,2.21407187 L6.45880872,1.5 Z M13.2196732,6.92124525 L16.7196732,10.4212453 C17.0125664,10.7141385 17.0125664,11.1890122 16.7196732,11.4819054 L13.2196732,14.9819054 C12.9267799,15.2747986 12.4519062,15.2747986 12.159013,14.9819054 C11.8661198,14.6890122 11.8661198,14.2141385 12.159013,13.9212453 L14.336,11.743 L7.49539663,11.7015612 C7.08119087,11.6990188 6.74747176,11.3611777 6.7499997,10.946972 C6.7525565,10.5327662 7.09039761,10.1990471 7.50460337,10.201575 L14.421,10.244 L12.159013,7.98190542 C11.8661198,7.68901221 11.8661198,7.21413847 12.159013,6.92124525 C12.4519062,6.62835203 12.9267799,6.62835203 13.2196732,6.92124525 Z M17.7543478,2.50576923 L9.539,2.505 L11,4 L19.004,4 L19.0043478,3.75576923 C19.0043478,3.06541329 18.4447038,2.50576923 17.7543478,2.50576923 Z" id="path-1"></path>
    </defs>
    <g id="ic/gallery/public/move-albm" stroke="none" stroke-width="1" fill="none" fill-rule="evenodd">
        <g id="symbol/frame/symbol_grid24-copy"></g>
        <g id="分组-2" transform="translate(1.000000, 2.750000)">
            <g id="folder">
                <mask id="mask-2" fill="white">
                    <use xlink:href="#path-1"></use>
                </mask>
                <use id="合并形状" fill="#000000" fill-rule="nonzero" xlink:href="#path-1"></use>
                <rect id="color/#000000"  mask="url(#mask-2)" x="-1" y="-2.75" width="24" height="24"></rect>
            </g>
            <g id="分组" transform="translate(7.250000, 7.250000)"></g>
        </g>
    </g>
</svg>