<?xml version="1.0" encoding="UTF-8"?>
<svg  viewBox="0 0 24 24" version="1.1" xmlns="http://www.w3.org/2000/svg" xmlns:xlink="http://www.w3.org/1999/xlink">
    <title>ic/gallery/public/play</title>
    <defs>
        <path d="M9.25,8.78041637 L9.25,14.9695836 C9.25,15.5218684 9.69771525,15.9695836 10.25,15.9695836 C10.4335751,15.9695836 10.6136079,15.9190514 10.7703702,15.8235244 L15.8486613,12.7289408 C16.3202797,12.4415483 16.4696244,11.8262483 16.1822319,11.3546298 C16.0992345,11.218429 15.9848621,11.1040566 15.8486613,11.0210592 L10.7703702,7.92647557 C10.2987517,7.63908306 9.68345171,7.78842772 9.3960592,8.2600462 C9.30053221,8.41680844 9.25,8.5968413 9.25,8.78041637 Z" id="path-1"></path>
    </defs>
    <g id="ic/gallery/public/play" stroke="none" stroke-width="1" fill="none" fill-rule="evenodd">
        <path d="M0.5,12 C0.5,18.35145 5.64855,23.5 12,23.5 C18.35145,23.5 23.5,18.35145 23.5,12 C23.5,5.64855 18.35145,0.5 12,0.5 C5.64855,0.5 0.5,5.64855 0.5,12 Z" id="Shape" fill-opacity="0.5" fill="#000000"></path>
        <path d="M0.5,12 C0.5,18.35145 5.64855,23.5 12,23.5 C18.35145,23.5 23.5,18.35145 23.5,12 C23.5,5.64855 18.35145,0.5 12,0.5 C5.64855,0.5 0.5,5.64855 0.5,12 Z M0,12 C0,5.37240747 5.37240747,0 12,0 C18.6275925,0 24,5.37240747 24,12 C24,18.6275925 18.6275925,24 12,24 C5.37240747,24 0,18.6275925 0,12 Z" id="Shape" fill-opacity="0.3" fill="#FFFFFF" fill-rule="nonzero"></path>
        <mask id="mask-2" fill="white">
            <use xlink:href="#path-1"></use>
        </mask>
        <use id="Path-46" fill="#FFFFFF" xlink:href="#path-1"></use>
    </g>
</svg>