<?xml version="1.0" encoding="UTF-8"?>
<svg viewBox="0 0 24 24" version="1.1" xmlns="http://www.w3.org/2000/svg" xmlns:xlink="http://www.w3.org/1999/xlink">
    <title>ic/gallery/public/rename</title>
    <defs>
        <path d="M11.5,3 C11.9142136,3 12.25,3.33578644 12.25,3.75 C12.25,4.12969577 11.9678461,4.44349096 11.6017706,4.49315338 L11.5,4.5 L10.75,4.5 L10.75,19.5 L11.5,19.5 C11.9142136,19.5 12.25,19.8357864 12.25,20.25 C12.25,20.6296958 11.9678461,20.943491 11.6017706,20.9931534 L11.5,21 L8.5,21 C8.08578644,21 7.75,20.6642136 7.75,20.25 C7.75,19.8703042 8.03215388,19.556509 8.39822944,19.5068466 L8.5,19.5 L9.25,19.5 L9.25,4.5 L8.5,4.5 C8.08578644,4.5 7.75,4.16421356 7.75,3.75 C7.75,3.37030423 8.03215388,3.05650904 8.39822944,3.00684662 L8.5,3 L11.5,3 Z M19.75,5.5 C21.4830315,5.5 22.8992459,6.85645477 22.9948552,8.56557609 L23,8.75 L23,15.25 C23,16.9830315 21.6435452,18.3992459 19.9344239,18.4948552 L19.75,18.5 L11.9788535,18.5 L11.9788535,17 L19.75,17 C20.6681734,17 21.4211923,16.2928897 21.4941988,15.3935272 L21.5,15.25 L21.5,8.75 C21.5,7.8318266 20.7928897,7.07880766 19.8935272,7.0058012 L19.75,7 L11.9788535,7 L11.9788535,5.5 L19.75,5.5 Z M8.05460842,5.5 L8.05460842,7 L4.25,7 C3.3318266,7 2.57880766,7.70711027 2.5058012,8.60647279 L2.5,8.75 L2.5,15.25 C2.5,16.1681734 3.20711027,16.9211923 4.10647279,16.9941988 L4.25,17 L8.0952381,17 L8.0952381,18.5 L4.25,18.5 C2.51696854,18.5 1.10075407,17.1435452 1.00514479,15.4344239 L1,15.25 L1,8.75 C1,7.01696854 2.35645477,5.60075407 4.06557609,5.50514479 L4.25,5.5 L8.05460842,5.5 Z" id="path-1"></path>
    </defs>
    <g id="ic/gallery/public/rename" stroke="none" stroke-width="1" fill="none" fill-rule="evenodd">
        <mask id="mask-2" fill="white">
            <use xlink:href="#path-1"></use>
        </mask>
        <use id="形状结合" fill="#000000" fill-rule="nonzero" xlink:href="#path-1"></use>
        <g id="编组" mask="url(#mask-2)" fill="#FFFFFF" fill-opacity="0.1">
            <g id="矩形">
                <rect x="0" y="0" width="24" height="24"></rect>
            </g>
        </g>
    </g>
</svg>