<?xml version="1.0" encoding="UTF-8"?>
<svg  viewBox="0 0 24 24" version="1.1" xmlns="http://www.w3.org/2000/svg" xmlns:xlink="http://www.w3.org/1999/xlink">
    <title>ic/gallery/public/select all</title>
    <defs>
        <path d="M16.5,4.5 C18.1568542,4.5 19.5,5.84314575 19.5,7.5 L19.5,19 C19.5,20.6568542 18.1568542,22 16.5,22 L5,22 C3.34314575,22 2,20.6568542 2,19 L2,7.5 C2,5.84314575 3.34314575,4.5 5,4.5 L16.5,4.5 Z M16.5,6 L5,6 C4.17157288,6 3.5,6.67157288 3.5,7.5 L3.5,19 C3.5,19.8284271 4.17157288,20.5 5,20.5 L16.5,20.5 C17.3284271,20.5 18,19.8284271 18,19 L18,7.5 C18,6.67157288 17.3284271,6 16.5,6 Z M19,2 C20.6568542,2 22,3.34314575 22,5 L22,16 C22,17.1105424 21.3965729,18.0801468 20.499712,18.59882 L20.5,5 C20.5,4.17157288 19.8284271,3.5 19,3.5 L5.40118003,3.50028797 C5.91985316,2.60342711 6.8894576,2 8,2 L19,2 Z M15.9323041,9.72323101 C16.2232305,10.0180779 16.2200525,10.492941 15.9252056,10.7838674 L9.65901481,16.9667413 C9.36695474,17.254918 8.8975369,17.254918 8.60547683,16.9667413 L5.47330468,13.8762153 C5.17845784,13.5852889 5.17527976,13.1104258 5.46620624,12.8155789 C5.75713272,12.5207321 6.23199581,12.517554 6.52684266,12.8084805 L9.13224582,15.3792415 L14.8716676,9.71613257 C15.1665145,9.42520609 15.6413776,9.42838417 15.9323041,9.72323101 Z" id="path-1"></path>
    </defs>
    <g id="ic/gallery/public/select-all" stroke="none" stroke-width="1" fill="none" fill-rule="evenodd">
        <mask id="mask-2" fill="white">
            <use xlink:href="#path-1"></use>
        </mask>
        <use id="合并形状" fill="#000000" fill-rule="nonzero" xlink:href="#path-1"></use>
        <g id="编组" mask="url(#mask-2)" fill="#FFFFFF" fill-opacity="0.1">
            <g id="矩形">
                <rect x="0" y="0" width="24" height="24"></rect>
            </g>
        </g>
    </g>
</svg>