<?xml version="1.0" encoding="UTF-8"?>
<svg viewBox="0 0 96 80" version="1.1" xmlns="http://www.w3.org/2000/svg" xmlns:xlink="http://www.w3.org/1999/xlink">
    <title>camera</title>
    <g id="camera" stroke="none" stroke-width="1" fill="none" fill-rule="evenodd" opacity="0.600000024">
        <g id="分布式相机_A端_当前能力（不能看画面、保存不到图库）" transform="translate(-192.000000, -376.000000)" fill="#FFFFFF" fill-rule="nonzero">
            <g id="camera" transform="translate(192.000000, 376.000000)">
                <path d="M61.1923742,0 C65.1194099,0 68.6881307,2.26748728 70.334153,5.80848669 L72,10.6666667 L85.3333333,10.6666667 C90.8942694,10.6666667 96,14.4771525 96,20 L96,70 C96,75.5228475 91.4919706,80 85.9310345,80 L10.0689655,80 C4.50802942,80 0,75.5228475 0,70 L0,20 C0,14.4771525 3.77239723,10.6666667 9.33333333,10.6666667 L24,10.6666667 L26.0467365,5.60120992 C27.7374307,2.17313032 31.2456982,0 35.089242,0 L61.1923742,0 Z M60.9777613,10.6666667 L35.2994939,10.6666667 L30.4439675,20.4444444 L10.6666667,20.4444444 L10.6666667,69.3333333 L85.3333333,69.3333333 L85.3333333,20.4444444 L65.5542459,20.4444444 L60.9777613,10.6666667 Z M48,25.3333333 C57.5729357,25.3333333 65.3333333,33.093731 65.3333333,42.6666667 C65.3333333,52.2396023 57.5729357,60 48,60 C38.4270643,60 30.6666667,52.2396023 30.6666667,42.6666667 C30.6666667,33.093731 38.4270643,25.3333333 48,25.3333333 Z M48,32 C42.1089627,32 37.3333333,36.7756293 37.3333333,42.6666667 C37.3333333,48.557704 42.1089627,53.3333333 48,53.3333333 C53.8910373,53.3333333 58.6666667,48.557704 58.6666667,42.6666667 C58.6666667,36.7756293 53.8910373,32 48,32 Z" id="Combined-Shape"></path>
            </g>
        </g>
    </g>
</svg>