<?xml version="1.0" encoding="UTF-8"?>
<svg viewBox="0 0 24 24" version="1.1" xmlns="http://www.w3.org/2000/svg" xmlns:xlink="http://www.w3.org/1999/xlink">
    <!-- Generator: Sketch 63.1 (92452) - https://sketch.com -->
    <title>ic/camera/public/setting</title>
    <desc>Created with Sketch.</desc>
    <defs>
        <path d="M13.70825,2 C14.2403697,2 14.7141584,2.33687436 14.8889143,2.8394774 L15.5345139,4.69622558 L16.6365526,5.38760147 L18.6269318,5.14298817 C19.1184463,5.08258167 19.599281,5.31803123 19.8529462,5.74333154 L21.465253,8.44646205 C21.7338645,8.89681034 21.6928445,9.46693714 21.3625299,9.87418823 L20.23464,11.2648046 L20.23464,12.8118425 L21.3337788,14.0806534 C21.682584,14.4833022 21.7378741,15.0627704 21.4715092,15.5241184 L19.8583026,18.3181911 C19.6056824,18.7557249 19.1145129,18.9981707 18.6135605,18.9326025 L16.6288399,18.6728366 L15.4599896,19.3872254 L14.889304,21.1374927 C14.7215788,21.6518995 14.2419403,22 13.70088,22 L10.29912,22 C9.75805967,22 9.27842121,21.6518995 9.11069618,21.1374932 L8.54001036,19.3872254 L7.3711601,18.6728366 L5.38644267,18.9326021 C4.88548754,18.9981708 4.39431828,18.755725 4.14169569,18.3181882 L2.52849263,15.5241201 C2.26212489,15.0627742 2.3174154,14.4833042 2.66622077,14.0806539 L3.76536025,12.8118427 L3.76536025,11.2648041 L2.63746851,9.87418765 C2.30715611,9.46693268 2.26613777,8.89680869 2.53474946,8.44645942 L4.14705025,5.74333534 C4.40072432,5.3180296 4.88155587,5.08258174 5.37306732,5.14298809 L7.36344734,5.38760146 L8.46586913,4.69598467 L9.11108242,2.83961616 C9.28580007,2.33694132 9.75962378,2 10.2917975,2 L13.70825,2 Z M13.5304936,3.5 L10.4695743,3.5 L9.85387943,5.27144002 C9.76051659,5.54005599 9.57835342,5.76880748 9.33745993,5.91993356 L8.08537462,6.70544346 C7.84209011,6.85806659 7.55366926,6.92226323 7.26861243,6.88723191 L5.35182869,6.65166336 L3.91243375,9.06489986 L4.9861789,10.3887571 C5.16679172,10.6114395 5.26536025,10.8894453 5.26536025,11.176165 L5.26536025,12.9050675 C5.26536025,13.2057106 5.15700466,13.4962836 4.96015466,13.7235211 L3.91652338,14.9282554 L5.35726902,17.4236272 L7.26401671,17.1740667 C7.54715799,17.1370108 7.83444989,17.198016 8.07810395,17.3469334 L9.40096749,18.1554535 C9.65497758,18.3106996 9.84524188,18.5515036 9.93752132,18.8345293 L10.4805585,20.5 L13.5194415,20.5 L14.0624765,18.8345358 C14.1547581,18.5515036 14.3450224,18.3106996 14.5990285,18.1554559 L15.9218986,17.3469318 C16.1655501,17.198016 16.452842,17.1370108 16.7359895,17.1740675 L18.642731,17.4236272 L20.0834771,14.928256 L19.0398456,13.7235209 C18.8429959,13.4962837 18.73464,13.2057107 18.73464,12.9050675 L18.73464,11.176165 C18.73464,10.8894447 18.8332092,10.6114386 19.0138201,10.3887593 L20.0875663,9.06489862 L18.6481702,6.65166346 L16.7313836,6.8872324 C16.4463307,6.92226323 16.1579099,6.85806659 15.9146178,6.70543871 L14.6629375,5.92018353 C14.4220858,5.76908246 14.2399422,5.54038487 14.1465682,5.27183385 L13.5304936,3.5 Z M12,8.25 C14.0710684,8.25 15.75,9.92893193 15.75,12 C15.75,14.0710686 14.0710686,15.75 12,15.75 C9.92893193,15.75 8.25,14.0710684 8.25,12 C8.25,9.92893219 9.92893219,8.25 12,8.25 Z M12,9.25 C10.4812169,9.25 9.25,10.4812169 9.25,12 C9.25,13.5187836 10.4812166,14.75 12,14.75 C13.5187839,14.75 14.75,13.5187839 14.75,12 C14.75,10.4812166 13.5187836,9.25 12,9.25 Z" id="path-1"></path>
    </defs>
    <g id="ic/camera/public/setting" stroke="none" stroke-width="1" fill="none" fill-rule="evenodd">
        <mask id="mask-2" fill="white">
            <use xlink:href="#path-1"></use>
        </mask>
        <use id="settting" fill="#FFFFFF" xlink:href="#path-1"></use>
        <g id="ic/bg/white" mask="url(#mask-2)" fill="#FFFFFF" fill-rule="nonzero">
<!--            <rect id="Rectangle-13-Copy" x="0" y="0" width="24" height="24"></rect>-->
        </g>
    </g>
</svg>