<?xml version="1.0" encoding="UTF-8"?>
<svg viewBox="0 0 24 24" version="1.1" xmlns="http://www.w3.org/2000/svg" xmlns:xlink="http://www.w3.org/1999/xlink">
    <!-- Generator: Sketch 63.1 (92452) - https://sketch.com -->
    <title>ic/camera/shutter/small_switch_camera</title>
    <desc>Created with Sketch.</desc>
    <defs>
        <path d="M3.25060567,11.5848775 L3.24973735,13.3476208 C2.60896536,13.8266837 2.25,14.3500124 2.25,14.875 C2.25,16.249785 4.71163709,17.6131941 8.24929698,18.2000937 L8.25,16.8776182 C8.25,16.7671613 8.33954305,16.6776182 8.45,16.6776182 C8.48372285,16.6776182 8.51689817,16.6861453 8.54644132,16.7024067 L12.8663184,19.0801881 C12.963085,19.1334512 12.9983516,19.2550743 12.9450886,19.3518409 C12.9244967,19.3892517 12.8924711,19.4190892 12.8536991,19.4369867 L8.53382204,21.4310764 C8.43353427,21.47737 8.31470656,21.4335991 8.26841293,21.3333113 C8.25628225,21.3070322 8.25,21.2784332 8.25,21.2494893 L8.24890704,19.724871 C3.89691265,19.0601281 0.75,17.2449926 0.75,14.875 C0.75,13.5803635 1.68904501,12.4512974 3.25060567,11.5848775 Z M20.7503815,11.5854253 C22.3113508,12.4517733 23.25,13.5806363 23.25,14.875 C23.25,17.1384012 20.4198656,18.893491 16.2688838,19.6356416 C15.8611359,19.7085426 15.471493,19.4370955 15.3985921,19.0293476 C15.3256912,18.6215997 15.5971383,18.2319569 16.0048862,18.159056 C19.5109435,17.5322108 21.75,16.1436743 21.75,14.875 C21.75,14.3502844 21.3914065,13.827226 20.7512584,13.3483654 L20.7503815,11.5854253 Z M14.0646174,3.25 C14.6496381,3.25 15.1812797,3.59012309 15.426492,4.121273 L15.7167519,4.75 L17.75,4.75 C18.5784271,4.75 19.25,5.42157288 19.25,6.25 L19.25,13.75 C19.25,14.5784271 18.5784271,15.25 17.75,15.25 L6.25,15.25 C5.42157288,15.25 4.75,14.5784271 4.75,13.75 L4.75,6.25 C4.75,5.42157288 5.42157288,4.75 6.25,4.75 L8.30706319,4.75 L8.63025013,4.09018149 C8.88211725,3.57596955 9.40475299,3.25 9.9773357,3.25 L14.0646174,3.25 Z M14.0646174,4.75 L9.9773357,4.75 L9.24261789,6.25 L6.25,6.25 L6.25,13.75 L17.75,13.75 L17.75,6.25 L14.7571118,6.25 L14.0646174,4.75 Z M12.125,7 C13.5747475,7 14.75,8.17525253 14.75,9.625 C14.75,11.0747475 13.5747475,12.25 12.125,12.25 C10.6752525,12.25 9.5,11.0747475 9.5,9.625 C9.5,8.17525253 10.6752525,7 12.125,7 Z M12.125,8 C11.2275373,8 10.5,8.72753728 10.5,9.625 C10.5,10.5224627 11.2275373,11.25 12.125,11.25 C13.0224627,11.25 13.75,10.5224627 13.75,9.625 C13.75,8.72753728 13.0224627,8 12.125,8 Z" id="path-1"></path>
    </defs>
    <g id="ic/camera/shutter/small_switch_camera" stroke="none" stroke-width="1" fill="none" fill-rule="evenodd">
        <mask id="mask-2" fill="white">
            <use xlink:href="#path-1"></use>
        </mask>
        <use id="small_switch_camera" fill="#FFFFFF" xlink:href="#path-1"></use>
    </g>
</svg>