<?xml version="1.0" encoding="UTF-8"?>
<svg width="50px" height="50px" viewBox="0 0 24 24" version="1.1" xmlns="http://www.w3.org/2000/svg" xmlns:xlink="http://www.w3.org/1999/xlink">
    <!-- Generator: Sketch 54.1 (76490) - https://sketchapp.com -->
    <title>ic_notification_wlan</title>
    <desc>Created with Sketch.</desc>
    <defs>
        <path d="M12,16.5c1.2,0 2.2,1 2.2,2.2S13.2,21 12,21s-2.2,-1 -2.2,-2.2S10.8,16.5 12,16.5zM12,12c2.1,0 4.1,0.8 5.5,2.3c0.4,0.4 0.4,1 0,1.4c-0.4,0.4 -1,0.4 -1.4,0c-1,-1.1 -2.5,-1.7 -4,-1.7c-1.6,0 -3,0.6 -4,1.7c-0.4,0.4 -1,0.4 -1.4,0s-0.4,-1 0,-1.4C7.9,12.8 9.9,12 12,12zM12,7.5c3.3,0 6.3,1.4 8.5,3.8c0.4,0.4 0.3,1 -0.1,1.4s-1,0.3 -1.4,-0.1c-1.8,-2 -4.3,-3.2 -7,-3.2c-2.7,0 -5.2,1.2 -7,3.2c-0.4,0.4 -1,0.4 -1.4,0.1c-0.4,-0.4 -0.4,-1 -0.1,-1.4C5.7,8.9 8.7,7.5 12,7.5zM12,3c4.3,0 8.3,1.8 11.2,4.8c0.4,0.4 0.4,1 0,1.4s-1,0.4 -1.4,0C19.2,6.5 15.7,5 12,5C8.3,5 4.8,6.5 2.2,9.2c-0.4,0.4 -1,0.4 -1.4,0c-0.4,-0.4 -0.4,-1 0,-1.4C3.7,4.8 7.7,3 12,3z" id="path-1"></path>
    </defs>
    <g stroke="none" stroke-width="1" fill="none" fill-rule="evenodd">
        <g >
            <mask id="mask-2" fill="white">
                <use xlink:href="#path-1"></use>
            </mask>
            <use id="合并形状" fill="#FFFFFF" fill-rule="nonzero" xlink:href="#path-1"></use>
        </g>
    </g>
</svg>